<?xml version="1.0" encoding="utf-8"?>
<!-- Generator: Adobe Illustrator 26.2.1, SVG Export Plug-In . SVG Version: 6.00 Build 0)  -->
<svg version="1.1" xmlns="http://www.w3.org/2000/svg" xmlns:xlink="http://www.w3.org/1999/xlink" x="0px" y="0px"
	 width="567.42914px" height="567.42914px" viewBox="0 0 567.42914 567.42914"
	 style="enable-background:new 0 0 567.42914 567.42914;" xml:space="preserve">
<style type="text/css">
	.st0{fill:none;stroke:#020202;stroke-width:0.5;stroke-miterlimit:10;}
	.st1{fill:none;stroke:#010101;stroke-width:0.5;stroke-miterlimit:10;}
	.st2{opacity:0.35;fill:#020202;}
</style>
<g id="Layer_2">
	<g>
		<g>
			<rect x="0.25" y="0.25" class="st0" width="566.92914" height="566.92914"/>
			<circle class="st0" cx="71.11614" cy="71.62667" r="19.84252"/>
			<g>
				<path class="st0" d="M231.24432,255.58203v0.07001l-0.81-0.81C230.69434,255.10205,230.96429,255.34204,231.24432,255.58203z"/>
			</g>
			<g>
				<g>
					<path class="st0" d="M366.60431,367.12207c-6.64001,6.63995-17.40997,6.63995-24.04999,0l-111.31-111.47003l0.03998-0.03998
						c-0.01001-0.01001-0.02997-0.02002-0.03998-0.03003c-0.28003-0.23999-0.54999-0.47998-0.81-0.73999l-16.52002-16.52002
						c-1.59003-1.58997-2.48999-3.75995-2.48999-6.00995v-15.12006l-3.27002-0.70996c-1.03998-0.31-1.92999-0.88-1.92999-1.94
						v-2.60004c0-1.06,0.87-1.92999,1.92999-1.92999h9.38c1.07001,0,1.94,0.87,1.94,1.94v2.59003c0,1.06-0.87,1.60999-1.94,1.94
						l-3.27002,0.70996v5.59003c0,1.56,1.27002,2.83002,2.83002,2.83002h25.16998c5.21002,0,9.87,2.33997,12.99005,6.02997
						l0.03998-0.03998l111.31,111.46002C373.24432,349.70203,373.24432,360.47205,366.60431,367.12207z"/>
				</g>
			</g>
			<g>
				<g>
					<path class="st0" d="M59.09255,343.06046c6.64001-6.63995,17.40998-6.63995,24.04999,0l111.30999,111.47003l-0.03998,0.03998
						c0.01001,0.01001,0.02997,0.02002,0.03998,0.03003c0.28003,0.23999,0.54999,0.47998,0.81,0.73999l16.52002,16.52002
						c1.59003,1.58997,2.48999,3.75995,2.48999,6.00995v15.12003l3.27002,0.70996c1.03998,0.31,1.92999,0.88,1.92999,1.94v2.60004
						c0,1.06-0.87,1.92999-1.92999,1.92999h-9.38c-1.07001,0-1.94-0.87-1.94-1.94v-2.59003c0-1.06,0.87-1.60999,1.94-1.94
						l3.27002-0.70996v-5.59003c0-1.56-1.27002-2.83002-2.83002-2.83002h-25.16998c-5.21002,0-9.87-2.33994-12.99005-6.02994
						l-0.03998,0.03998l-111.31-111.46002C52.45253,360.4805,52.45253,349.71048,59.09255,343.06046z"/>
				</g>
			</g>
			<g>
				<g>
					<path class="st0" d="M342.5571,59.59587c6.64001-6.63995,17.40997-6.63995,24.04999,0l111.31,111.47005l-0.03998,0.03998
						c0.01001,0.01001,0.02997,0.02002,0.03998,0.03003c0.28003,0.23999,0.54999,0.47998,0.81,0.73999l16.52002,16.52002
						c1.59003,1.58997,2.48999,3.75995,2.48999,6.00995v15.12006l3.27002,0.70996c1.03998,0.31,1.92999,0.88,1.92999,1.94v2.60004
						c0,1.06-0.87,1.92999-1.92999,1.92999h-9.38c-1.07001,0-1.94-0.87-1.94-1.94v-2.59003c0-1.06,0.87-1.60999,1.94-1.94
						l3.27002-0.70996v-5.59003c0-1.56-1.27002-2.83002-2.83002-2.83002h-25.16998c-5.21002,0-9.87-2.33997-12.99005-6.02997
						l-0.03998,0.03998L342.5571,83.6559C335.91708,77.01594,335.91708,66.24592,342.5571,59.59587z"/>
				</g>
			</g>
			<path class="st0" d="M497.73434,485.422v7.45996l3.27002,0.71002c1.03998,0.31,1.92999,0.88,1.92999,1.94v2.59998
				c0,1.06-0.87,1.93005-1.92999,1.93005h-9.38c-1.07001,0-1.94-0.87006-1.94-1.94v-2.59003c0-1.06,0.87-1.60999,1.94-1.94
				l3.26996-0.71002V485.422c-10.29999-0.72003-18.42001-9.29993-18.42001-19.77997c0-10.95996,8.88004-19.83997,19.84006-19.83997
				c10.95996,0,19.84,8.88,19.84,19.83997C516.15436,476.12207,508.03433,484.70197,497.73434,485.422z"/>
		</g>
		<g id="Layer_1_00000111912140334161823880000005813803597718256316_">
			<g>
				<rect x="0.25" y="0.25" class="st0" width="566.92914" height="566.92914"/>
				<rect x="544.5022" y="71.116" class="st0" width="8.50366" height="70.86614"/>
				<rect x="544.5022" y="247.51569" class="st0" width="8.50366" height="70.86615"/>
				<rect x="544.5022" y="425.44672" class="st0" width="8.50366" height="70.86615"/>
				<rect x="14.42323" y="71.116" class="st0" width="8.50394" height="70.86614"/>
				<rect x="14.42323" y="247.51569" class="st0" width="8.50394" height="70.86615"/>
				<rect x="14.42323" y="425.44672" class="st0" width="8.50394" height="70.86615"/>
				<circle class="st0" cx="42.76968" cy="42.76968" r="7.08661"/>
				<circle class="st0" cx="524.65948" cy="42.76968" r="7.08661"/>
				<circle class="st0" cx="524.65942" cy="524.65948" r="7.08661"/>
				<circle class="st0" cx="42.76968" cy="524.65948" r="7.08661"/>
				<g>
					<g>
						<g>
							<rect x="142.97685" y="544.48706" class="st1" width="28.91339" height="8.50397"/>
							<path class="st1" d="M129.07794,543.18091c3.07007,0,5.56952,2.48767,5.56952,5.55804
								c0,3.07043-2.49945,5.55817-5.56952,5.55817c-3.05921,0-5.55811-2.48773-5.55811-5.55817
								C123.51983,545.66858,126.01873,543.18091,129.07794,543.18091z"/>
							<rect x="86.27825" y="544.48694" class="st1" width="28.91339" height="8.50397"/>
						</g>
					</g>
					<rect x="248.33141" y="544.487" class="st0" width="70.86615" height="8.50397"/>
					<g>
						<g>
							<rect x="395.34958" y="544.487" class="st1" width="28.91339" height="8.50397"/>
							<path class="st1" d="M438.1619,554.29712c-3.07007,0-5.56952-2.48767-5.56952-5.55804
								c0-3.07043,2.49945-5.55817,5.56952-5.55817c3.0592,0,5.55811,2.48773,5.55811,5.55817
								C443.72,551.80945,441.2211,554.29712,438.1619,554.29712z"/>
							<rect x="452.04819" y="544.48712" class="st1" width="28.91339" height="8.50397"/>
						</g>
					</g>
				</g>
				<g>
					<g>
						<rect x="23.25583" y="14.40488" class="st0" width="28.91339" height="8.50397"/>
						<path class="st0" d="M66.06814,24.215c-3.07007,0-5.56952-2.48767-5.56952-5.55804c0-3.07043,2.49945-5.55817,5.56952-5.55817
							c3.0592,0,5.55811,2.48773,5.55811,5.55817C71.62625,21.72733,69.12735,24.215,66.06814,24.215z"/>
						<rect x="79.95444" y="14.405" class="st0" width="28.91338" height="8.50397"/>
					</g>
					<g>
						<rect x="515.25989" y="14.40488" class="st0" width="28.91339" height="8.50397"/>
						<path class="st0" d="M501.36099,24.215c3.07007,0,5.56952-2.48767,5.56952-5.55804c0-3.07043-2.49945-5.55817-5.56952-5.55817
							c-3.0592,0-5.55814,2.48773-5.55814,5.55817C495.80286,21.72733,498.30176,24.215,501.36099,24.215z"/>
						<rect x="458.56131" y="14.405" class="st0" width="28.91338" height="8.50397"/>
					</g>
					<rect x="248.33141" y="14.40491" class="st0" width="70.86615" height="8.50394"/>
				</g>
			</g>
		</g>
	</g>
</g>
<g id="Layer_1">
</g>
</svg>
