<?xml version="1.0" encoding="utf-8"?>
<!-- Generator: Adobe Illustrator 26.2.1, SVG Export Plug-In . SVG Version: 6.00 Build 0)  -->
<svg version="1.1" xmlns="http://www.w3.org/2000/svg" xmlns:xlink="http://www.w3.org/1999/xlink" x="0px" y="0px"
	 width="294.70001px" height="121.5355px" viewBox="0 0 294.70001 121.5355" style="enable-background:new 0 0 294.70001 121.5355;"
	 xml:space="preserve">
<style type="text/css">
	.st0{fill:none;stroke:#020202;stroke-width:0.5;stroke-miterlimit:10;}
	.st1{fill:none;stroke:#010101;stroke-width:0.5;stroke-miterlimit:10;}
	.st2{opacity:0.35;fill:#020202;}
</style>
<g id="Layer_2">
</g>
<g id="Layer_1">
	<g>
		<path class="st2" d="M276.44,23.96776h-26.53998c-19.28003,0-32.88-0.31-41.83002-12.72003
			c-9.69-13.44-22.70996-11.08997-32.10999-11.08997H118.75c-9.39996,0-22.41998-2.35004-32.12,11.08997
			c-8.94995,12.41003-22.54999,12.72003-41.82996,12.72003H18.26001C8.18005,23.96776,0,32.14775,0,42.23772v37.05999
			c0,10.09003,8.18005,18.27002,18.26001,18.27002h26.54004c19.27997,0,32.88,0.32001,41.82996,12.72003
			c9.70001,13.44,22.72003,11.08997,32.12,11.08997h57.21002c9.40002,0,22.41998,2.35004,32.10999-11.08997
			c8.95001-12.40002,22.54999-12.72003,41.83002-12.72003H276.44c10.08002,0,18.26001-8.17999,18.26001-18.27002V42.23772
			C294.70001,32.14775,286.52002,23.96776,276.44,23.96776z M276.37,32.52776c5.48004,0,9.92004,4.45001,9.92004,9.90997
			c0,5.47003-4.44,9.92999-9.92004,9.92999c-5.47998,0-9.91998-4.45996-9.91998-9.92999
			C266.45001,36.97777,270.89001,32.52776,276.37,32.52776z M213.16003,32.52776c5.47998,0,9.91998,4.45996,9.91998,9.94
			c0,5.45001-4.44,9.90997-9.91998,9.90997s-9.91998-4.45996-9.91998-9.90997
			C203.24005,36.98772,207.68005,32.52776,213.16003,32.52776z M189.87,11.24773c3.91003,0,7.08002,3.17004,7.08002,7.08002
			c0,2.29999-1.08997,4.34998-2.78998,5.64001c-1.19,0.90997-2.67999,1.45001-4.29004,1.45001
			c-1.62,0-3.10999-0.54004-4.28998-1.45001c-1.71002-1.29004-2.79999-3.34003-2.79999-5.64001
			C182.78003,14.41777,185.95001,11.24773,189.87,11.24773z M104.83002,11.24773c3.91998,0,7.09003,3.17004,7.09003,7.08002
			c0,2.29999-1.09003,4.34998-2.80005,5.64001c-1.17999,0.90997-2.66998,1.45001-4.28998,1.45001
			c-1.60999,0-3.09998-0.54004-4.28998-1.45001C98.84003,22.67772,97.75,20.62773,97.75,18.32775
			C97.75,14.41777,100.92004,11.24773,104.83002,11.24773z M81.54004,32.52776c5.47998,0,9.91998,4.45996,9.91998,9.94
			c0,5.45001-4.44,9.90997-9.91998,9.90997c-5.48004,0-9.92004-4.45996-9.92004-9.90997
			C71.62,36.98772,76.06,32.52776,81.54004,32.52776z M18.33002,32.52776c5.47998,0,9.91998,4.45001,9.91998,9.90997
			c0,5.47003-4.44,9.92999-9.91998,9.92999s-9.91998-4.45996-9.91998-9.92999C8.41003,36.97777,12.85004,32.52776,18.33002,32.52776
			z M18.33002,89.00774c-5.47998,0-9.91998-4.45001-9.91998-9.90997c0-5.47003,4.44-9.92999,9.91998-9.92999
			S28.25,73.62773,28.25,79.09776C28.25,84.55772,23.81,89.00774,18.33002,89.00774z M81.54004,89.01775
			c-5.48004,0-9.92004-4.46002-9.92004-9.94c0-5.45001,4.44-9.90997,9.92004-9.90997c5.47998,0,9.91998,4.45996,9.91998,9.90997
			C91.46002,84.55772,87.02002,89.01775,81.54004,89.01775z M104.83002,110.28777c-3.90997,0-7.08002-3.17004-7.08002-7.08002
			c0-2.29999,1.09003-4.35004,2.79004-5.64001c1.19-0.90997,2.67999-1.45001,4.28998-1.45001
			c1.62,0,3.10999,0.54004,4.28998,1.45001c1.71002,1.28998,2.80005,3.34003,2.80005,5.64001
			C111.92004,107.11772,108.75,110.28777,104.83002,110.28777z M189.87,110.28777c-3.91998,0-7.08997-3.17004-7.08997-7.08002
			c0-2.29999,1.08997-4.35004,2.79999-5.64001c1.17999-0.90997,2.66998-1.45001,4.28998-1.45001
			c1.61005,0,3.10004,0.54004,4.29004,1.45001c1.70001,1.28998,2.78998,3.34003,2.78998,5.64001
			C196.95001,107.11772,193.78003,110.28777,189.87,110.28777z M213.16003,89.01775c-5.47998,0-9.91998-4.46002-9.91998-9.94
			c0-5.45001,4.44-9.90997,9.91998-9.90997s9.91998,4.45996,9.91998,9.90997
			C223.08002,84.55772,218.64001,89.01775,213.16003,89.01775z M276.37,89.00774c-5.47998,0-9.91998-4.45001-9.91998-9.90997
			c0-5.47003,4.44-9.92999,9.91998-9.92999c5.48004,0,9.92004,4.45996,9.92004,9.92999
			C286.29004,84.55772,281.85004,89.00774,276.37,89.00774z"/>
	</g>
</g>
</svg>
