<?xml version="1.0" encoding="utf-8"?>
<!-- Generator: Adobe Illustrator 26.2.1, SVG Export Plug-In . SVG Version: 6.00 Build 0)  -->
<svg version="1.1" xmlns="http://www.w3.org/2000/svg" xmlns:xlink="http://www.w3.org/1999/xlink" x="0px" y="0px"
	 width="294.70001px" height="60.76764px" viewBox="0 0 294.70001 60.76764" style="enable-background:new 0 0 294.70001 60.76764;"
	 xml:space="preserve">
<style type="text/css">
	.st0{fill:none;stroke:#020202;stroke-width:0.5;stroke-miterlimit:10;}
	.st1{fill:none;stroke:#010101;stroke-width:0.5;stroke-miterlimit:10;}
	.st2{opacity:0.35;fill:#020202;}
</style>
<g id="Layer_2">
</g>
<g id="Layer_1">
	<g>
		<g>
			<g>
				<g>
					<path class="st2" d="M276.44,23.96771h-26.53998c-19.28003,0-32.88-0.31995-41.83002-12.72009
						c-9.69-13.43994-22.70996-11.08984-32.10999-11.08984H118.75c-9.39996,0-22.41998-2.3501-32.12,11.08984
						c-8.94995,12.40015-22.54999,12.72009-41.82996,12.72009H18.26001C8.18005,23.96771,0,32.14777,0,42.23773l0,12.85999
						c0,3.13,2.54004,5.66992,5.67004,5.66992h283.35999c3.13,0,5.66998-2.53992,5.66998-5.66992V42.23773
						C294.70001,32.14777,286.52002,23.96771,276.44,23.96771z M18.10004,52.36774c-5.16998-0.12012-9.5-4.40002-9.67999-9.57007
						c-0.20001-5.62,4.31-10.27002,9.90997-10.27002c5.47998,0,9.91998,4.45007,9.91998,9.91003
						C28.25,47.98773,23.69,52.49762,18.10004,52.36774z M81.54004,52.37775c-6.15002,0-10.98999-5.62012-9.71002-11.95996
						c0.78998-3.93005,3.98999-7.05005,7.94-7.74011c6.26001-1.07996,11.69,3.7301,11.69,9.79004
						C91.46002,47.91779,87.02002,52.37775,81.54004,52.37775z M109.12,23.96771c-1.17999,0.91003-2.66998,1.45007-4.28998,1.45007
						c-1.60999,0-3.09998-0.54004-4.28998-1.45007c-1.91003-1.44006-3.04999-3.84998-2.73999-6.48999
						c0.38-3.22009,3.01996-5.83997,6.23999-6.18005c4.27997-0.45996,7.88,2.86011,7.88,7.03003
						C111.92004,20.62774,110.83002,22.67767,109.12,23.96771z M194.16003,23.96771c-1.19,0.91003-2.67999,1.45007-4.29004,1.45007
						c-1.62,0-3.10999-0.54004-4.28998-1.45007c-1.71002-1.29004-2.79999-3.33997-2.79999-5.64001
						c0-4.16992,3.60999-7.48999,7.88-7.03003c3.22998,0.34009,5.87,2.95996,6.23999,6.18005
						C197.21002,20.11773,196.07001,22.52765,194.16003,23.96771z M213.16003,52.37775c-5.47998,0-9.91998-4.45996-9.91998-9.91003
						c0-6.05994,5.42999-10.87,11.69-9.79004c3.94995,0.69006,7.14996,3.81006,7.94995,7.74011
						C224.16003,46.75763,219.32001,52.37775,213.16003,52.37775z M276.14001,52.36774
						c-5.16998-0.12012-9.5-4.40002-9.67999-9.57007c-0.20001-5.62,4.31-10.27002,9.90997-10.27002
						c5.48004,0,9.92004,4.45007,9.92004,9.91003C286.29004,47.98773,281.73004,52.49762,276.14001,52.36774z"/>
				</g>
			</g>
		</g>
	</g>
</g>
</svg>
