<?xml version="1.0" encoding="utf-8"?>
<!-- Generator: Adobe Illustrator 26.2.1, SVG Export Plug-In . SVG Version: 6.00 Build 0)  -->
<svg version="1.1" xmlns="http://www.w3.org/2000/svg" xmlns:xlink="http://www.w3.org/1999/xlink" x="0px" y="0px"
	 width="567.42914px" height="567.42914px" viewBox="0 0 567.42914 567.42914"
	 style="enable-background:new 0 0 567.42914 567.42914;" xml:space="preserve">
<style type="text/css">
	.st0{fill:none;stroke:#020202;stroke-width:0.5;stroke-miterlimit:10;}
	.st1{fill:none;stroke:#010101;stroke-width:0.5;stroke-miterlimit:10;}
	.st2{opacity:0.35;fill:#020202;}
</style>
<g id="Layer_2">
	<g id="Layer_1_00000111180303730131830430000007757771504611877567_">
		<g>
			<rect x="0.25" y="0.25" class="st0" width="566.92914" height="566.92914"/>
			<rect x="14.42323" y="425.44702" class="st0" width="8.50366" height="70.86614"/>
			<rect x="14.42323" y="249.0473" class="st0" width="8.50366" height="70.86615"/>
			<rect x="14.42323" y="71.11627" class="st0" width="8.50366" height="70.86615"/>
			<rect x="544.50195" y="425.44702" class="st0" width="8.50394" height="70.86614"/>
			<rect x="544.50195" y="249.0473" class="st0" width="8.50394" height="70.86615"/>
			<rect x="544.50195" y="71.11627" class="st0" width="8.50394" height="70.86615"/>
			<circle class="st0" cx="524.65942" cy="524.65948" r="7.08661"/>
			<circle class="st0" cx="42.76965" cy="524.65948" r="7.08661"/>
			<circle class="st0" cx="42.76968" cy="42.76968" r="7.08661"/>
			<circle class="st0" cx="524.65942" cy="42.76968" r="7.08661"/>
			<g>
				<g>
					<g>
						<g>
							<path class="st0" d="M54.1106,323.39865V102.29861c0-8.90997,6.85004-16.21997,15.58002-16.94995V75.05865l-3.27002-0.70996
								c-1.03998-0.31-1.92999-0.88-1.92999-1.94v-2.60004c0-1.06,0.87-1.92999,1.92999-1.92999h9.38c1.07001,0,1.94,0.87,1.94,1.94
								v2.59003c0,1.06-0.87,1.60999-1.94,1.94l-3.27002,0.70996v10.29001c8.73004,0.70996,15.59006,8.02997,15.59006,16.94995
								v221.10004c0,8.90997-6.86002,16.22998-15.58005,16.95001v10.28998l3.27002,0.71002c1.03998,0.31,1.92999,0.88,1.92999,1.94
								v2.59998c0,1.06-0.87,1.92999-1.92999,1.92999h-9.38c-1.07001,0-1.94-0.87-1.94-1.94v-2.58997c0-1.06,0.87-1.61005,1.94-1.94
								l3.27002-0.71002v-10.28998C60.97058,339.62863,54.1106,332.30862,54.1106,323.39865z"/>
						</g>
					</g>
				</g>
			</g>
			<g>
				<g>
					<g>
						<g>
							<path class="st0" d="M337.57574,323.39865V102.29861c0-8.90997,6.85004-16.21997,15.58002-16.94995V75.05865
								l-3.27002-0.70996c-1.03998-0.31-1.92999-0.88-1.92999-1.94v-2.60004c0-1.06,0.87-1.92999,1.92999-1.92999h9.38
								c1.07001,0,1.94,0.87,1.94,1.94v2.59003c0,1.06-0.87,1.60999-1.94,1.94l-3.27002,0.70996v10.29001
								c8.73004,0.70996,15.59003,8.02997,15.59003,16.94995v221.10004c0,8.90997-6.85999,16.22998-15.58002,16.95001v10.28998
								l3.27002,0.71002c1.03998,0.31,1.92999,0.88,1.92999,1.94v2.59998c0,1.06-0.87,1.92999-1.92999,1.92999h-9.38
								c-1.07001,0-1.94-0.87-1.94-1.94v-2.58997c0-1.06,0.87-1.61005,1.94-1.94l3.27002-0.71002v-10.28998
								C344.43573,339.62863,337.57574,332.30862,337.57574,323.39865z"/>
						</g>
					</g>
				</g>
			</g>
			<g>
				<path class="st0" d="M195.84061,496.30862V212.84866c0-9.39001,7.61005-17.01001,17.01001-17.01001
					c9.39001,0,17.01001,7.62,17.01001,17.01001v283.45996c0,9.40002-7.62,17.01004-17.01001,17.01004
					C203.45065,513.31866,195.84061,505.70865,195.84061,496.30862z"/>
			</g>
			<g>
				<g>
					<path class="st0" d="M479.30063,496.30862V212.84866c0-9.39001,7.62-17.01001,17.01001-17.01001
						c9.39999,0,17.00998,7.62,17.00998,17.01001v283.45996c0,9.40002-7.60999,17.01004-17.00998,17.01004
						C486.92062,513.31866,479.30063,505.70865,479.30063,496.30862z"/>
				</g>
			</g>
			<g>
				<g>
					<g>
						<rect x="395.53888" y="14.43814" class="st1" width="28.91339" height="8.50397"/>
						<path class="st1" d="M438.3512,24.24826c-3.07007,0-5.56952-2.48767-5.56952-5.55804
							c0-3.07043,2.49945-5.55817,5.56952-5.55817c3.0592,0,5.55811,2.48773,5.55811,5.55817
							C443.9093,21.76059,441.4104,24.24826,438.3512,24.24826z"/>
						<rect x="452.23749" y="14.43826" class="st1" width="28.91339" height="8.50397"/>
					</g>
				</g>
				<rect x="248.23157" y="14.43817" class="st0" width="70.86615" height="8.50397"/>
				<g>
					<g>
						<rect x="143.16614" y="14.4382" class="st1" width="28.91339" height="8.50397"/>
						<path class="st1" d="M129.26723,13.13205c3.07007,0,5.56952,2.48767,5.56952,5.55804
							c0,3.07043-2.49945,5.55817-5.56952,5.55817c-3.0592,0-5.5581-2.48773-5.5581-5.55817
							C123.70913,15.61972,126.20803,13.13205,129.26723,13.13205z"/>
						<rect x="86.46755" y="14.43808" class="st1" width="28.91339" height="8.50397"/>
					</g>
				</g>
			</g>
			<g>
				<g>
					<rect x="515.25989" y="544.52032" class="st0" width="28.91339" height="8.50397"/>
					<path class="st0" d="M501.36096,543.21417c3.07007,0,5.56952,2.48767,5.56952,5.55804s-2.49945,5.55817-5.56952,5.55817
						c-3.05917,0-5.55811-2.48773-5.55811-5.55817C495.80286,545.70184,498.30176,543.21417,501.36096,543.21417z"/>
					<rect x="458.56128" y="544.5202" class="st0" width="28.91338" height="8.50397"/>
				</g>
				<g>
					<rect x="23.25583" y="544.52032" class="st0" width="28.91339" height="8.50397"/>
					<path class="st0" d="M66.06814,543.21417c-3.07007,0-5.56952,2.48767-5.56952,5.55804s2.49945,5.55817,5.56952,5.55817
						c3.0592,0,5.55811-2.48773,5.55811-5.55817C71.62625,545.70184,69.12735,543.21417,66.06814,543.21417z"/>
					<rect x="79.95444" y="544.5202" class="st0" width="28.91338" height="8.50397"/>
				</g>
				<rect x="248.23157" y="544.52032" class="st0" width="70.86615" height="8.50394"/>
			</g>
		</g>
	</g>
</g>
<g id="Layer_1">
</g>
</svg>
