<?xml version="1.0" encoding="utf-8"?>
<!-- Generator: Adobe Illustrator 26.2.1, SVG Export Plug-In . SVG Version: 6.00 Build 0)  -->
<svg version="1.1" xmlns="http://www.w3.org/2000/svg" xmlns:xlink="http://www.w3.org/1999/xlink" x="0px" y="0px"
	 width="536.52979px" height="149.60986px" viewBox="0 0 536.52979 149.60986"
	 style="enable-background:new 0 0 536.52979 149.60986;" xml:space="preserve">
<style type="text/css">
	.st0{fill:none;stroke:#020202;stroke-width:0.5;stroke-miterlimit:10;}
	.st1{fill:none;stroke:#010101;stroke-width:0.5;stroke-miterlimit:10;}
	.st2{opacity:0.35;fill:#020202;}
</style>
<g id="Layer_2">
</g>
<g id="Layer_1">
	<path class="st1" d="M303.69492,0.25h-70.86005v7.29987H155.7565V0.25h-27.7453v7.29987h-8.71137l0.00977,16.18011h4.07031
		l-0.01025,8.92993h-4.06982v17.90991h-11.33984V32.65991h-4.06006v-8.92993h4.06982l-0.00977-16.18011h-8.7016V0.25H71.32124
		v7.29987H0.25v134.44012h7.8515v7.36987h27.9469v-7.36987h8.70161v-16.39014H40.6797v-8.92993h4.07031V98.75977h11.33984v17.91016
		h4.06982l-0.00977,8.92993h-4.06006v16.39014h8.71137v7.36987h27.93713v-7.36987h140.09653v7.36987h70.86005v-7.36987h140.24265
		v7.36987h27.94693v-7.36987h8.7016v-16.39014h-4.08008l0.00977-8.92993h4.07031V98.75977h11.33984v17.91016h4.06006v8.92993
		h-4.06006v16.39014h8.71185v7.36987h27.93661v-7.36987h7.70538V7.54987h-71.26224V0.25h-27.8461v7.29987h-8.71185v16.18011h4.08008
		l-0.00977,8.92993h-4.07031v17.90991h-11.33984V32.65991h-4.06006v-8.92993h4.06982l-0.00977-16.18011h-8.7016V0.25h-27.93665
		v7.29987h-76.78659V0.25"/>
</g>
</svg>
