<?xml version="1.0" encoding="utf-8"?>
<!-- Generator: Adobe Illustrator 26.2.1, SVG Export Plug-In . SVG Version: 6.00 Build 0)  -->
<svg version="1.1" xmlns="http://www.w3.org/2000/svg" xmlns:xlink="http://www.w3.org/1999/xlink" x="0px" y="0px"
	 width="147.34998px" height="121.5355px" viewBox="0 0 147.34998 121.5355" style="enable-background:new 0 0 147.34998 121.5355;"
	 xml:space="preserve">
<style type="text/css">
	.st0{fill:none;stroke:#020202;stroke-width:0.5;stroke-miterlimit:10;}
	.st1{fill:none;stroke:#010101;stroke-width:0.5;stroke-miterlimit:10;}
	.st2{opacity:0.35;fill:#020202;}
</style>
<g id="Layer_2">
</g>
<g id="Layer_1">
	<g>
		<path class="st2" d="M129.08002,23.96776h-26.53003c-19.28003,0-32.88-0.31-41.83002-12.72003
			c-9.69-13.44-22.70996-11.08997-32.10999-11.08997H5.66929C2.53823,0.15776,0,2.69599,0,5.82705v109.88139
			c0,3.13107,2.53823,5.66929,5.66929,5.66929h22.94069c9.40002,0,22.41998,2.35004,32.10999-11.08997
			c8.95001-12.40002,22.54999-12.72003,41.83002-12.72003h26.53998c10.08002,0,18.26001-8.17999,18.26001-18.27002V42.23772
			C147.34998,32.1475,139.17024,23.96776,129.08002,23.96776z M42.51996,110.28777c-3.91998,0-7.08997-3.17004-7.08997-7.08002
			c0-2.29999,1.08997-4.35004,2.79999-5.64001c1.17999-0.90997,2.66998-1.45001,4.28998-1.45001
			c1.61005,0,3.10004,0.54004,4.29004,1.45001c1.70001,1.28998,2.78998,3.34003,2.78998,5.64001
			C49.59998,107.11772,46.42999,110.28777,42.51996,110.28777z M65.82001,89.01775c-5.48004,0-9.92004-4.46002-9.92004-9.94
			c0-5.45001,4.44-9.90997,9.92004-9.90997c5.47998,0,9.91998,4.45996,9.91998,9.90997
			C75.73999,84.55772,71.29999,89.01775,65.82001,89.01775z M129.01996,89.00774c-5.47998,0-9.91998-4.45001-9.91998-9.90997
			c0-5.47003,4.44-9.92999,9.91998-9.92999c5.48004,0,9.92004,4.45996,9.92004,9.92999
			C138.94,84.55772,134.5,89.00774,129.01996,89.00774z M129.01996,32.52776c5.48004,0,9.92004,4.45001,9.92004,9.90997
			c0,5.47003-4.44,9.92999-9.92004,9.92999c-5.47998,0-9.91998-4.45996-9.91998-9.92999
			C119.09998,36.97777,123.53998,32.52776,129.01996,32.52776z M65.82001,32.52776c5.47998,0,9.91998,4.45996,9.91998,9.94
			c0,5.45001-4.44,9.90997-9.91998,9.90997c-5.48004,0-9.92004-4.45996-9.92004-9.90997
			C55.89996,36.98772,60.33997,32.52776,65.82001,32.52776z M42.51996,11.24773c3.91003,0,7.08002,3.17004,7.08002,7.08002
			c0,2.29999-1.08997,4.34998-2.78998,5.64001c-1.19,0.90997-2.67999,1.45001-4.29004,1.45001
			c-1.62,0-3.10999-0.54004-4.28998-1.45001c-1.71002-1.29004-2.79999-3.34003-2.79999-5.64001
			C35.42999,14.41777,38.59998,11.24773,42.51996,11.24773z"/>
	</g>
</g>
</svg>
